<svg  viewBox="0 0 28 28" fill="none" xmlns="http://www.w3.org/2000/svg">
<path d="M19.623 2.22839H8.37638C5.90305 2.22839 3.87305 4.25839 3.87305 6.73173V23.1701C3.87305 25.2701 5.37805 26.1567 7.22138 25.1417L12.9147 21.9801C13.5214 21.6417 14.5014 21.6417 15.0964 21.9801L20.7897 25.1417C22.633 26.1684 24.138 25.2817 24.138 23.1701V6.73173C24.1264 4.25839 22.108 2.22839 19.623 2.22839ZM18.223 10.5351L13.5564 15.2017C13.3814 15.3767 13.1597 15.4584 12.938 15.4584C12.7164 15.4584 12.4947 15.3767 12.3197 15.2017L10.5697 13.4517C10.2314 13.1134 10.2314 12.5534 10.5697 12.2151C10.908 11.8767 11.468 11.8767 11.8064 12.2151L12.938 13.3467L16.9864 9.29839C17.3247 8.96006 17.8847 8.96006 18.223 9.29839C18.5614 9.63673 18.5614 10.1967 18.223 10.5351Z" fill="#713DDC"/>
</svg>
