<svg width="24" height="24" viewBox="0 0 24 24" fill="none" xmlns="http://www.w3.org/2000/svg">
<path d="M8 2V5" stroke="#8E8E93" stroke-width="1.5" stroke-miterlimit="10" stroke-linecap="round" stroke-linejoin="round"/>
<path d="M16 2V5" stroke="#8E8E93" stroke-width="1.5" stroke-miterlimit="10" stroke-linecap="round" stroke-linejoin="round"/>
<path d="M3.5 9.08997H20.5" stroke="#8E8E93" stroke-width="1.5" stroke-miterlimit="10" stroke-linecap="round" stroke-linejoin="round"/>
<path d="M19.2081 15.7699L15.6681 19.3099C15.5281 19.4499 15.3981 19.7099 15.3681 19.8999L15.1781 21.2499C15.1081 21.7399 15.4481 22.0799 15.9381 22.0099L17.2881 21.8199C17.4781 21.7899 17.7481 21.6599 17.8781 21.5199L21.4181 17.9799C22.0281 17.3699 22.3181 16.6599 21.4181 15.7599C20.5281 14.8699 19.8181 15.1599 19.2081 15.7699Z" stroke="#8E8E93" stroke-width="1.5" stroke-miterlimit="10" stroke-linecap="round" stroke-linejoin="round"/>
<path d="M18.6982 16.2799C18.9982 17.3599 19.8382 18.1999 20.9182 18.4999" stroke="#8E8E93" stroke-width="1.5" stroke-miterlimit="10" stroke-linecap="round" stroke-linejoin="round"/>
<path d="M12 22H8C4.5 22 3 20 3 17V8.5C3 5.5 4.5 3.5 8 3.5H16C19.5 3.5 21 5.5 21 8.5V12" stroke="#8E8E93" stroke-width="1.5" stroke-miterlimit="10" stroke-linecap="round" stroke-linejoin="round"/>
<path d="M11.9951 13.7H12.0041" stroke="#8E8E93" stroke-width="2" stroke-linecap="round" stroke-linejoin="round"/>
<path d="M8.29431 13.7H8.30329" stroke="#8E8E93" stroke-width="2" stroke-linecap="round" stroke-linejoin="round"/>
<path d="M8.29431 16.7H8.30329" stroke="#8E8E93" stroke-width="2" stroke-linecap="round" stroke-linejoin="round"/>
</svg>
