<svg width="42" height="42" viewBox="0 0 42 42" fill="none" xmlns="http://www.w3.org/2000/svg">
<path d="M20.9994 7C28.5069 7 34.7597 11.2508 39.6632 19.5195L40.0482 20.1827L40.1269 20.3578L40.1794 20.503L40.2039 20.5992L40.2284 20.7427L40.2477 20.9178V21.1102L40.2232 21.3045C40.2117 21.3695 40.1965 21.4338 40.1777 21.497L40.1094 21.686L40.0464 21.8173L40.0184 21.8697C35.1814 30.3327 28.9934 34.7848 21.5472 34.993L20.9994 35C13.3064 35 6.93469 30.5393 1.98044 21.868C1.82943 21.6036 1.75 21.3045 1.75 21C1.75 20.6955 1.82943 20.3964 1.98044 20.132C6.93469 11.4607 13.3064 7 20.9994 7ZM20.9994 15.75C19.6071 15.75 18.2717 16.3031 17.2871 17.2877C16.3026 18.2723 15.7494 19.6076 15.7494 21C15.7494 22.3924 16.3026 23.7277 17.2871 24.7123C18.2717 25.6969 19.6071 26.25 20.9994 26.25C22.3918 26.25 23.7272 25.6969 24.7117 24.7123C25.6963 23.7277 26.2494 22.3924 26.2494 21C26.2494 19.6076 25.6963 18.2723 24.7117 17.2877C23.7272 16.3031 22.3918 15.75 20.9994 15.75Z" fill="black"/>
</svg>
